<svg id="Layer_1" data-name="Layer 1" xmlns="http://www.w3.org/2000/svg" xmlns:xlink="http://www.w3.org/1999/xlink" viewBox="0 0 1024 192"><defs><style>.cls-1{fill:#1a1921;}</style></defs><path class="cls-1" d="M264.4,83a25.08,25.08,0,0,1-4.76,15.09,23.71,23.71,0,0,1-10.56,8.25q1.33,2.07,6.62,8.75a109.29,109.29,0,0,0,8.06,8.05q-2.17.8-9.59,4-5.17,2.37-9.77,4.63-1.34-1.66-6-8.61-2.13-3.51-6.25-11.85h-.09l-.47,16.2H205.56q-.51-10.08-1.44-33.29-.42-13.65-1.9-37.82a221.89,221.89,0,0,1,23.25-1.34Q264.41,55.05,264.4,83Zm-21,10a6.55,6.55,0,0,0-3.7-6.3,13.74,13.74,0,0,0-6.85-1.2l-.28,15.84a13.61,13.61,0,0,0,6.85-1.72A7.14,7.14,0,0,0,243.38,93Z"/><path class="cls-1" d="M315.75,56.39l-2,29.31c-1.14-.19-3.61-.51-7.41-1-2.59-.24-5.43-.4-8.52-.46l-.69,8.84q5.08.15,16.62-.23-.51,1.71-1.62,6.39c-.43,1.89-.82,4.06-1.16,6.53a65.82,65.82,0,0,0-6.71-.83q-2.5-.15-7.41-.1l-.46,10.33q3.47,0,12.78-.6a45.16,45.16,0,0,0,5.78-1.11q-.36,1.42-1.71,6.89c-.43,1.89-1,4.26-1.57,7.13H270.24L268.9,91.21q-.37-12.46-1.81-34.82Z"/><path class="cls-1" d="M376.64,56.39Q376,65.74,374.83,89q-.69,17.13-1.16,39.4-6.06-4.77-18.47-14.21-5.37-3.75-16-11.25l-.46,24.53H323.81q-.37-9.39-1.72-35.46-1.15-21.12-2.36-35.65H343l17.22,16.3q0-5.61-.19-8.8-.13-2.82-.55-7.5Z"/><path class="cls-1" d="M437.06,127.5H411.73L410,121.35c-.71.27-2.49,1.22-5.33,2.82a52.17,52.17,0,0,0-6.06,4.68L396,123.24c-.53-1.11-1.28-2.66-2.27-4.67l-2.5,8.93H377.79q3-11.43,9.17-37.73,3.8-17.59,6.34-33.38h27.83q1.29,7.26,7.08,33.84Q431.41,104.12,437.06,127.5Zm-29.22-15.18c-.52-1.64-1.45-4.29-2.78-8q-1.2-3-3.65-8.42-1.07,2.68-3.34,8.8-1.24,3.51-3,9.58c.93,0,3-.19,6.3-.56A44.27,44.27,0,0,0,407.84,112.32Z"/><path class="cls-1" d="M470.9,56.39l-1.8,37.82q-.51,12.23-1.21,33.29h-26l-3.15-71.11Z"/><path class="cls-1" d="M518.78,85.51a25.89,25.89,0,0,0-5.19-.79,6.12,6.12,0,0,0-4,1.49,5.79,5.79,0,0,0-2.18,4.67q0,2.22,4,8.57t4,11.66a15.84,15.84,0,0,1-5.88,12.69,20.63,20.63,0,0,1-13.85,4.77q-7.59,0-11.2-1.07c-.28-1.41-.76-3.73-1.44-6.94q-.64-2.59-1.8-6.9a36.31,36.31,0,0,0,6.85,1.25q6.9,0,6.9-5.23a9.8,9.8,0,0,0-2.78-6.81q-4.54-4-9.08-8-8.79-7.77-8.79-18.47,0-11.16,8.33-16.9,7.27-5,19.36-5a68.09,68.09,0,0,1,15.37,2Z"/><path class="cls-1" d="M566.46,85.51a25.72,25.72,0,0,0-5.18-.79,6.12,6.12,0,0,0-4,1.49,5.79,5.79,0,0,0-2.18,4.67q0,2.22,4,8.57t4,11.66a15.86,15.86,0,0,1-5.87,12.69,20.63,20.63,0,0,1-13.85,4.77q-7.59,0-11.2-1.07c-.28-1.41-.76-3.73-1.44-6.94q-.65-2.59-1.8-6.9a36.18,36.18,0,0,0,6.85,1.25q6.9,0,6.9-5.23a9.8,9.8,0,0,0-2.78-6.81q-4.54-4-9.08-8Q522,87.09,522,76.39q0-11.16,8.33-16.9,7.27-5,19.35-5a68.1,68.1,0,0,1,15.38,2Z"/><path class="cls-1" d="M626.7,127.5H601.38l-1.72-6.15c-.71.27-2.48,1.22-5.32,2.82a52.19,52.19,0,0,0-6.07,4.68l-2.64-5.61c-.52-1.11-1.28-2.66-2.27-4.67l-2.5,8.93H567.44q3-11.43,9.16-37.73Q580.4,72.18,583,56.39h27.82q1.31,7.26,7.09,33.84Q621.06,104.12,626.7,127.5Zm-29.21-15.18c-.53-1.64-1.46-4.29-2.78-8-.81-2-2-4.84-3.66-8.42q-1.06,2.68-3.33,8.8-1.26,3.51-3,9.58,1.39,0,6.3-.56A44.67,44.67,0,0,0,597.49,112.32Z"/><path class="cls-1" d="M685.32,56.39q-.66,9.34-1.81,32.64-.69,17.13-1.16,39.4-6.06-4.77-18.47-14.21-5.37-3.75-16-11.25l-.46,24.53H632.49q-.37-9.39-1.71-35.46-1.17-21.12-2.37-35.65h23.25l17.22,16.3q0-5.61-.19-8.8-.13-2.82-.55-7.5Z"/><path class="cls-1" d="M741.43,85.51a22.72,22.72,0,0,0-6.53-.79q-7.41,0-12,3.89-5.22,4.35-5.23,12.55a14.1,14.1,0,0,0,4.15,10.49,14.76,14.76,0,0,0,10.85,4.09,17.82,17.82,0,0,0,8.71-2.26q-.47,1.89-1.58,7c-.43,2.25-.84,4.6-1.25,7a37.4,37.4,0,0,1-13.28,2,35.19,35.19,0,0,1-25.1-9.87q-11.29-10.74-11.3-28,0-15.93,9.73-25.74,10.37-10.47,28.66-10.47,8.79,0,12.73,1Z"/><path class="cls-1" d="M794.12,56.39l-2,29.31c-1.14-.19-3.61-.51-7.41-1-2.59-.24-5.43-.4-8.52-.46l-.69,8.84q5.09.15,16.62-.23-.51,1.71-1.62,6.39c-.43,1.89-.82,4.06-1.16,6.53a65.82,65.82,0,0,0-6.71-.83q-2.5-.15-7.41-.1l-.46,10.33q3.47,0,12.77-.6a44.9,44.9,0,0,0,5.79-1.11q-.37,1.42-1.71,6.89c-.43,1.89-1,4.26-1.57,7.13H748.61l-1.35-36.29q-.36-12.46-1.8-34.82Z"/><path class="cls-1" d="M879,97.09Q878.52,101,877.6,112q-.47,6.52-.88,15.46-6.21,1.82-18.1,1.81-17.7,0-28.76-8Q816.81,111.77,816.81,93q0-18,11.43-28.06,10.74-9.48,28.29-9.49a107.22,107.22,0,0,1,14.22,1l2.54,29.22a25.34,25.34,0,0,0-8.7-1.16,20.86,20.86,0,0,0-13,4.4,15.21,15.21,0,0,0-6.48,12.59,12.91,12.91,0,0,0,5.51,11.16,17,17,0,0,0,10.7,3.15l-.74-9.31q-.29-2.86-1.25-9.44Z"/><path class="cls-1" d="M944.08,56.39l-1.06,30q-.46,12.82-.46,38.8a71,71,0,0,1-24.17,4.26q-15.2,0-23.1-6.06-6.72-5.15-9.5-16-1.62-6.25-3-22.87-1.4-15.37-1.71-28.06h29.86q-.24,6.11-.56,19.91-.14,7.68.1,21.8,0,10.75,1.85,14.5,1.89,4,7.59,4a8.66,8.66,0,0,0,3.61-.93q0-9.54-.55-30.32-.46-10.42-1.72-28.94Z"/><path class="cls-1" d="M1012,56.39l-8.7,16.11q-3.53,6.61-9.5,18.52-.56,6.48-1.43,18.38-.29,6.34-.93,18.1H967.7q-.19-5.73-.84-18.38-.36-4.77-1.71-18.1-2.4-5-8-16.07-3.66-6.75-10.65-18.56h34.17q.82,3,2.91,9.49L988,78.38q1.75-4.26,4.77-12.59,1-3.29,2.63-9.4Z"/><image width="1650" height="1650" transform="matrix(0.12, -0.02, 0.02, 0.12, -16.44, 9.79)" xlink:href="../../../Pictures/guy-head-max.png"/></svg>